<?xml version="1.0" standalone="no"?><!DOCTYPE svg PUBLIC "-//W3C//DTD SVG 1.1//EN" "http://www.w3.org/Graphics/SVG/1.1/DTD/svg11.dtd"><svg t="1497946033688" class="icon" style="" viewBox="0 0 1024 1024" version="1.1" xmlns="http://www.w3.org/2000/svg" p-id="7090" xmlns:xlink="http://www.w3.org/1999/xlink" width="128" height="128"><defs><style type="text/css"></style></defs><path d="M838.174758 140.444683 180.850951 140.444683c-50.327222 0-91.27482 40.977273-91.27482 91.304496l0 562.711985c0 50.327222 40.947598 91.27482 91.27482 91.27482l657.323806 0c50.327222 0 91.27482-40.947598 91.27482-91.27482l0-225.270627 0-23.254633 0-314.185702C929.449577 181.422979 888.503003 140.444683 838.174758 140.444683zM833.695746 197.597357c21.315468 0 38.632879 17.317411 38.632879 38.632879l0 151.072741-221.182518-0.361227-0.029676-189.344393L833.695746 197.597357zM591.498612 197.597357l0.060375 387.647831-55.288211-33.341363-5.65172-2.856048-0.330528 0.63138c-8.267291-2.795673-17.407462-1.923816-24.802896 2.52552-1.202385 0.751107-2.013867 1.593288-1.864464 1.804089l-53.18327 29.582759-0.060375-385.994168L591.498612 197.597357zM146.698107 236.229213c0-21.315468 17.317411-38.632879 38.632879-38.632879l205.428719 0 0.029676 189.735295-244.091274-0.390903L146.698107 236.229213zM872.327602 789.982152c0 21.315468-17.317411 38.632879-38.632879 38.632879L185.330986 828.615031c-21.315468 0-38.632879-17.317411-38.632879-38.632879L146.698107 446.528869l244.12095 0.361227 0.029676 187.209776c0 19.301602 19.180851 35.024701 38.422078 28.319999l0.51063 0.842181 91.454922-50.808176 84.811618 51.560306c13.709233 8.116865 32.800034 3.1569 40.857547-10.432607 2.885723-4.869914 4.118807-10.642384 3.698229-16.174378 0.029676-0.090051 0.060375-0.180102 0.090051-0.270153l0.480954-0.51063-0.029676-190.095499 221.182518 0.361227 0 99.287307 0 23.074531L872.327602 789.982152z" p-id="7091" fill="#ff6214"></path></svg>