<?xml version="1.0" standalone="no"?><!DOCTYPE svg PUBLIC "-//W3C//DTD SVG 1.1//EN" "http://www.w3.org/Graphics/SVG/1.1/DTD/svg11.dtd"><svg t="1497945629322" class="icon" style="" viewBox="0 0 1024 1024" version="1.1" xmlns="http://www.w3.org/2000/svg" p-id="6398" xmlns:xlink="http://www.w3.org/1999/xlink" width="128" height="128"><defs><style type="text/css"></style></defs><path d="M512.408299 75.819826c-239.836367 0-434.936857 167.04655-434.936857 372.387265 0 112.989377 61.201897 219.213677 167.885662 291.579845 14.198374 9.6815 33.520441 5.957689 43.151799-8.253988 9.631358-14.182001 5.934153-33.484625-8.263198-43.104727-89.379657-60.606333-140.641157-148.148132-140.641157-240.22113 0-171.112146 167.233815-310.322721 372.802728-310.322721 205.570959 0 372.804774 139.210575 372.804774 310.322721S717.979258 758.531859 512.408299 758.531859c-1.925862 0-3.572362 0.743944-5.406127 1.086751-14.693654-2.639107-29.574572 5.057179-34.732036 19.579941-5.965875 16.850783-45.016263 45.245484-91.399663 71.561849 16.931624-56.449663 8.822946-68.550259 3.388167-76.589352-6.525624-9.6815-17.398252-15.452947-29.04757-15.452947-17.149589 0-31.067576 13.870916-31.067576 31.03176 0 5.64865 1.490957 10.924817 4.13211 15.485693-3.137457 17.657148-16.71366 58.992579-32.091906 96.821139-4.78498 11.729136-1.927909 25.196869 7.175423 34.011628 5.903453 5.709025 13.701047 8.719592 21.623483 8.719592 4.254907 0 8.541537-0.868787 12.612249-2.668783 35.416628-15.764032 143.341662-67.030649 182.14441-121.833813 236.450247-3.412726 427.605891-168.847569 427.605891-372.078227C947.346179 242.866377 752.244666 75.819826 512.408299 75.819826z" p-id="6399" fill="#ff6214"></path><path d="M385.967562 541.30442l189.570543 0c17.147542 0 31.06553-13.902638 31.06553-31.032784 0-17.129122-13.886265-31.03176-31.06553-31.03176L385.967562 479.239875c-17.149589 0-31.067576 13.902638-31.067576 31.03176C354.899986 527.402805 368.817973 541.30442 385.967562 541.30442z" p-id="6400" fill="#ff6214"></path><path d="M385.967562 417.175331l248.53447 0c17.180288 0 31.067576-13.902638 31.067576-31.032784 0-17.129122-13.886265-31.03176-31.067576-31.03176L385.967562 355.110787c-17.149589 0-31.067576 13.902638-31.067576 31.03176C354.899986 403.273716 368.817973 417.175331 385.967562 417.175331z" p-id="6401" fill="#ff6214"></path></svg>