<?xml version="1.0" standalone="no"?><!DOCTYPE svg PUBLIC "-//W3C//DTD SVG 1.1//EN" "http://www.w3.org/Graphics/SVG/1.1/DTD/svg11.dtd"><svg t="1498112840797" class="icon" style="" viewBox="0 0 1024 1024" version="1.1" xmlns="http://www.w3.org/2000/svg" p-id="1040" xmlns:xlink="http://www.w3.org/1999/xlink" width="128" height="128"><defs><style type="text/css"></style></defs><path d="M793.6 322.6624c0-155.2384-126.3104-281.6-281.6-281.6s-281.6 126.3104-281.6 281.6c0 109.6192 63.0784 204.5952 154.7264 251.0848C216.32 627.8656 76.8 781.2096 76.8 937.0624c0 14.1312 11.4688 25.6 25.6 25.6s25.6-11.4688 25.6-25.6c0-164.864 193.792-332.8 384-332.8C667.2896 604.2624 793.6 477.952 793.6 322.6624zM512 553.0624c-127.0272 0-230.4-103.3728-230.4-230.4 0-127.0272 103.3728-230.4 230.4-230.4s230.4 103.3728 230.4 230.4C742.4 449.6896 639.0272 553.0624 512 553.0624z" p-id="1041" fill="#999999"></path><path d="M709.376 602.88c-12.544-6.4-27.9552-1.3824-34.4576 11.1616-6.4 12.5952-1.4336 28.0064 11.1616 34.4576 125.5424 64.2048 209.92 180.1728 209.92 288.5632 0 14.1312 11.4688 25.6 25.6 25.6s25.6-11.4688 25.6-25.6C947.2 809.9328 851.6608 675.6352 709.376 602.88z" p-id="1042" fill="#999999"></path></svg>